<svg xmlns="http://www.w3.org/2000/svg" viewBox="0 0 600 800">
  <defs>
    <radialGradient id="bg" cx="50%" cy="45%" r="75%">
      <stop offset="0%" stop-color="#231f1b"/>
      <stop offset="100%" stop-color="#0e0d0b"/>
    </radialGradient>
    <radialGradient id="warmth" cx="50%" cy="78%" r="40%">
      <stop offset="0%" stop-color="#a68d42" stop-opacity="0.22"/>
      <stop offset="60%" stop-color="#3a2418" stop-opacity="0.08"/>
      <stop offset="100%" stop-color="#0e0d0b" stop-opacity="0"/>
    </radialGradient>
  </defs>
  <rect width="100%" height="100%" fill="url(#bg)"/>
  <rect width="100%" height="100%" fill="url(#warmth)"/>

  <path d="M170 280 Q200 170 300 160 Q400 170 430 280 L460 780 L140 780 Z"
        fill="#14110e" stroke="#6b5d3e" stroke-width="1.5"/>

  <ellipse cx="300" cy="290" rx="72" ry="92" fill="#0e0d0b"/>
  <circle cx="278" cy="300" r="1.6" fill="#a68d42"/>
  <circle cx="322" cy="300" r="1.6" fill="#a68d42"/>

  <g transform="translate(300 405)">
    <rect x="-10" y="-2" width="20" height="24" fill="#7a2e3b" stroke="#943548" stroke-width="0.5"/>
    <circle cx="0" cy="-8" r="8" fill="#7a2e3b" stroke="#943548" stroke-width="0.5"/>
    <line x1="-4" y1="-10" x2="-2" y2="-12" stroke="#d4c9a8" stroke-width="0.6"/>
    <line x1="2" y1="-12" x2="4" y2="-10" stroke="#d4c9a8" stroke-width="0.6"/>
    <line x1="0" y1="-2" x2="0" y2="22" stroke="#6b5d3e" stroke-width="0.6" stroke-dasharray="1 1"/>
  </g>

  <circle cx="240" cy="620" r="10" fill="#ffd9a0" opacity="0.55"/>
  <circle cx="360" cy="620" r="10" fill="#ffd9a0" opacity="0.55"/>
  <circle cx="240" cy="620" r="26" fill="#a68d42" opacity="0.15"/>
  <circle cx="360" cy="620" r="26" fill="#a68d42" opacity="0.15"/>

  <text x="300" y="770" text-anchor="middle" fill="#7a7468"
        font-family="Georgia, serif" font-size="14" font-style="italic" letter-spacing="2">
    Thorek Duskworn
  </text>
</svg>
