<svg xmlns="http://www.w3.org/2000/svg" viewBox="0 0 1200 700">
  <defs>
    <linearGradient id="sky" x1="0" y1="0" x2="0" y2="1">
      <stop offset="0%" stop-color="#1a1c18"/>
      <stop offset="60%" stop-color="#111310"/>
      <stop offset="100%" stop-color="#0e0d0b"/>
    </linearGradient>
    <radialGradient id="moon" cx="50%" cy="50%" r="50%">
      <stop offset="0%" stop-color="#2b332b"/>
      <stop offset="70%" stop-color="#16191a" stop-opacity="0.6"/>
      <stop offset="100%" stop-color="#14110e" stop-opacity="0"/>
    </radialGradient>
  </defs>
  <rect width="100%" height="100%" fill="url(#sky)"/>

  <circle cx="960" cy="130" r="70" fill="url(#moon)"/>
  <circle cx="960" cy="130" r="22" fill="#1f2722" opacity="0.7"/>

  <g fill="#a68d42" opacity="0.45">
    <circle cx="160" cy="80"  r="1.2"/>
    <circle cx="320" cy="60"  r="1"/>
    <circle cx="520" cy="100" r="1.4"/>
    <circle cx="700" cy="70"  r="1"/>
    <circle cx="1120" cy="90" r="1.2"/>
  </g>

  <g fill="#0a0c08">
    <path d="M0 700 L0 440 L60 360 L110 480 L170 340 L220 500 L280 360 L340 490 L400 320 L460 470 L520 340 L580 490 L640 320 L700 470 L760 340 L820 500 L880 320 L940 470 L1000 360 L1060 490 L1120 340 L1200 440 L1200 700 Z"/>
  </g>

  <g fill="#131612" opacity="0.85">
    <path d="M0 700 L60 560 L120 610 L180 540 L240 600 L300 540 L360 590 L420 540 L480 590 L540 540 L600 600 L660 540 L720 600 L780 540 L840 590 L900 540 L960 590 L1020 550 L1080 600 L1140 540 L1200 580 L1200 700 Z"/>
  </g>

  <g stroke="#2b332b" stroke-width="1" fill="none" opacity="0.4">
    <path d="M80 450 Q120 440 140 460"/>
    <path d="M200 430 Q240 420 260 440"/>
    <path d="M880 430 Q920 420 940 440"/>
  </g>

  <text x="600" y="150" text-anchor="middle" fill="#d4c9a8"
        font-family="Georgia, serif" font-size="52" font-style="italic" letter-spacing="8">
    Ruhar
  </text>
  <text x="600" y="195" text-anchor="middle" fill="#7a7468"
        font-family="Georgia, serif" font-size="16" letter-spacing="3">
    the forest that finds the wounded
  </text>
</svg>
