<svg xmlns="http://www.w3.org/2000/svg" viewBox="0 0 1600 900">
  <defs>
    <linearGradient id="sky" x1="0" y1="0" x2="0" y2="1">
      <stop offset="0%" stop-color="#1b1c17"/>
      <stop offset="60%" stop-color="#14110e"/>
      <stop offset="100%" stop-color="#0e0d0b"/>
    </linearGradient>
    <radialGradient id="glow" cx="50%" cy="66%" r="38%">
      <stop offset="0%" stop-color="#ffd9a0" stop-opacity="0.38"/>
      <stop offset="35%" stop-color="#a68d42" stop-opacity="0.18"/>
      <stop offset="70%" stop-color="#3a2418" stop-opacity="0.08"/>
      <stop offset="100%" stop-color="#0e0d0b" stop-opacity="0"/>
    </radialGradient>
  </defs>

  <rect width="100%" height="100%" fill="url(#sky)"/>
  <rect width="100%" height="100%" fill="url(#glow)"/>

  <g fill="#a68d42" opacity="0.4">
    <circle cx="320" cy="80"  r="1.2"/>
    <circle cx="560" cy="60"  r="1"/>
    <circle cx="820" cy="100" r="1.4"/>
    <circle cx="1060" cy="70" r="1"/>
    <circle cx="1260" cy="90" r="1.2"/>
  </g>

  <g fill="#0a0c08">
    <path d="M0 900 L0 110 L60 40 L110 200 L170 60 L210 240 L270 100 L320 260 L380 120 L420 900 Z"/>
    <path d="M1600 900 L1600 110 L1540 40 L1490 200 L1430 60 L1390 240 L1330 100 L1280 260 L1220 120 L1180 900 Z"/>
    <path d="M420 900 L440 540 L480 560 L500 900 Z"/>
    <path d="M1180 900 L1160 540 L1120 560 L1100 900 Z"/>
  </g>
  <g fill="#141713" opacity="0.85">
    <path d="M420 900 L440 640 L470 660 L490 900 Z"/>
    <path d="M1180 900 L1160 640 L1130 660 L1110 900 Z"/>
    <path d="M560 900 L575 720 L595 730 L605 900 Z"/>
    <path d="M1040 900 L1025 720 L1005 730 L995 900 Z"/>
  </g>

  <g transform="translate(800 610)">
    <ellipse cx="0" cy="260" rx="95" ry="16" fill="#000" opacity="0.75"/>

    <path d="M-70 -30 Q-60 -170 0 -190 Q60 -170 70 -30 L92 260 L-92 260 Z"
          fill="#14110e" stroke="#6b5d3e" stroke-width="1.2"/>

    <ellipse cx="0" cy="-148" rx="30" ry="40" fill="#0e0d0b"/>
    <circle cx="-9" cy="-140" r="1.4" fill="#a68d42"/>
    <circle cx="9"  cy="-140" r="1.4" fill="#a68d42"/>

    <g transform="translate(0 -60)">
      <rect x="-8" y="-2" width="16" height="22" fill="#7a2e3b" stroke="#943548" stroke-width="0.6"/>
      <circle cx="0" cy="-8" r="6" fill="#7a2e3b" stroke="#943548" stroke-width="0.6"/>
      <line x1="-3" y1="-9" x2="-2" y2="-11" stroke="#d4c9a8" stroke-width="0.5"/>
      <line x1="2" y1="-11" x2="3" y2="-9" stroke="#d4c9a8" stroke-width="0.5"/>
      <line x1="0" y1="-2" x2="0" y2="20" stroke="#6b5d3e" stroke-width="0.6" stroke-dasharray="1 1"/>
    </g>

    <circle cx="-40" cy="120" r="60" fill="#a68d42" opacity="0.12"/>
    <circle cx="40"  cy="120" r="60" fill="#a68d42" opacity="0.12"/>
    <circle cx="-40" cy="120" r="28" fill="#ffd9a0" opacity="0.28"/>
    <circle cx="40"  cy="120" r="28" fill="#ffd9a0" opacity="0.28"/>
    <circle cx="-40" cy="120" r="10" fill="#ffe9bf"/>
    <circle cx="40"  cy="120" r="10" fill="#ffe9bf"/>
  </g>
</svg>
