<svg xmlns="http://www.w3.org/2000/svg" viewBox="0 0 1600 900">
  <defs>
    <radialGradient id="glow" cx="50%" cy="55%" r="50%">
      <stop offset="0%" stop-color="#a68d42" stop-opacity="0.35"/>
      <stop offset="60%" stop-color="#3a1f14" stop-opacity="0.2"/>
      <stop offset="100%" stop-color="#0e0d0b" stop-opacity="0"/>
    </radialGradient>
    <linearGradient id="sky" x1="0" y1="0" x2="0" y2="1">
      <stop offset="0%" stop-color="#1b1915"/>
      <stop offset="100%" stop-color="#0e0d0b"/>
    </linearGradient>
  </defs>
  <rect width="100%" height="100%" fill="url(#sky)"/>
  <rect width="100%" height="100%" fill="url(#glow)"/>

  <g stroke="#4a6b58" stroke-width="2.5" fill="none" opacity="0.9">
    <path d="M150 820 L150 280 M150 500 L90 380 M150 470 L220 350 M150 400 L130 300"/>
    <path d="M350 820 L350 260 M350 480 L280 360 M350 460 L420 330 M350 380 L330 280"/>
    <path d="M1250 820 L1250 280 M1250 500 L1180 380 M1250 470 L1330 350 M1250 400 L1230 300"/>
    <path d="M1460 820 L1460 260 M1460 480 L1400 360 M1460 450 L1540 330 M1460 390 L1440 280"/>
  </g>
  <g fill="#a68d42" opacity="0.75">
    <circle cx="150" cy="300" r="3"/>
    <circle cx="130" cy="310" r="2"/>
    <circle cx="220" cy="350" r="2.5"/>
    <circle cx="350" cy="270" r="3"/>
    <circle cx="420" cy="340" r="2"/>
    <circle cx="1250" cy="290" r="2.5"/>
    <circle cx="1330" cy="350" r="2"/>
    <circle cx="1460" cy="280" r="3"/>
    <circle cx="1540" cy="340" r="2"/>
  </g>

  <ellipse cx="800" cy="620" rx="70" ry="14" fill="#000" opacity="0.7"/>
  <path d="M760 620 L760 480 Q760 440 800 440 Q840 440 840 480 L840 620 Z"
        fill="#14110e" stroke="#6b5d3e" stroke-width="1.5"/>
  <rect x="775" y="455" width="50" height="18" fill="#0e0d0b" stroke="#8a7635" stroke-width="1"/>
  <circle cx="800" cy="430" r="7" fill="#943548" opacity="0.9"/>
  <circle cx="800" cy="430" r="14" fill="#7a2e3b" opacity="0.35"/>

  <rect x="0" y="820" width="1600" height="80" fill="#0e0d0b"/>
  <line x1="0" y1="820" x2="1600" y2="820" stroke="#2a2826" stroke-width="1"/>
</svg>
