<svg xmlns="http://www.w3.org/2000/svg" viewBox="0 0 1200 700">
  <defs>
    <linearGradient id="bg" x1="0" y1="0" x2="0" y2="1">
      <stop offset="0%" stop-color="#1a1a18"/>
      <stop offset="100%" stop-color="#0e0d0b"/>
    </linearGradient>
  </defs>
  <rect width="100%" height="100%" fill="url(#bg)"/>
  <g stroke="#4a6b58" stroke-width="2" fill="none" opacity="0.85">
    <path d="M200 650 L200 300 M200 450 L150 380 M200 430 L260 360 M200 380 L170 320"/>
    <path d="M400 650 L400 280 M400 440 L350 360 M400 410 L460 340 M400 360 L380 300"/>
    <path d="M600 650 L600 260 M600 420 L540 340 M600 400 L660 320 M600 340 L580 280"/>
    <path d="M800 650 L800 290 M800 450 L740 370 M800 420 L860 350 M800 380 L780 320"/>
    <path d="M1000 650 L1000 310 M1000 460 L940 380 M1000 440 L1060 370 M1000 400 L990 340"/>
  </g>
  <g fill="#a68d42" opacity="0.6">
    <circle cx="200" cy="300" r="2"/>
    <circle cx="170" cy="320" r="1.5"/>
    <circle cx="260" cy="360" r="2"/>
    <circle cx="400" cy="280" r="2"/>
    <circle cx="460" cy="340" r="1.5"/>
    <circle cx="600" cy="260" r="2.5"/>
    <circle cx="660" cy="320" r="2"/>
    <circle cx="800" cy="290" r="2"/>
    <circle cx="1000" cy="310" r="2"/>
  </g>
  <rect x="0" y="648" width="1200" height="52" fill="#231f1b"/>
  <text x="600" y="140" text-anchor="middle" fill="#d4c9a8"
        font-family="Georgia, serif" font-size="44" font-style="italic" letter-spacing="6">
    The Glass Orchard
  </text>
</svg>
