<svg xmlns="http://www.w3.org/2000/svg" viewBox="0 0 1200 700">
  <defs>
    <radialGradient id="space" cx="50%" cy="50%" r="80%">
      <stop offset="0%" stop-color="#141612"/>
      <stop offset="70%" stop-color="#0e0d0b"/>
      <stop offset="100%" stop-color="#0a0a09"/>
    </radialGradient>
    <radialGradient id="body" cx="40%" cy="40%" r="70%">
      <stop offset="0%" stop-color="#3a2e1f"/>
      <stop offset="55%" stop-color="#1d1812"/>
      <stop offset="100%" stop-color="#0e0d0b"/>
    </radialGradient>
    <radialGradient id="fracture" cx="50%" cy="50%" r="50%">
      <stop offset="0%" stop-color="#ffd9a0" stop-opacity="0.9"/>
      <stop offset="40%" stop-color="#a68d42" stop-opacity="0.5"/>
      <stop offset="100%" stop-color="#7a2e3b" stop-opacity="0"/>
    </radialGradient>
  </defs>

  <rect width="100%" height="100%" fill="url(#space)"/>

  <g fill="#d4c9a8" opacity="0.35">
    <circle cx="120" cy="80"  r="1"/>
    <circle cx="280" cy="50"  r="1.2"/>
    <circle cx="450" cy="100" r="0.9"/>
    <circle cx="1020" cy="70" r="1.1"/>
    <circle cx="1120" cy="160" r="1"/>
    <circle cx="160" cy="580" r="1"/>
    <circle cx="340" cy="620" r="1.2"/>
    <circle cx="1080" cy="540" r="1"/>
  </g>

  <circle cx="600" cy="360" r="260" fill="url(#body)" stroke="#3a2e1f" stroke-width="1"/>

  <g stroke="#6b5d3e" stroke-width="0.6" fill="none" opacity="0.5">
    <path d="M420 340 Q490 310 560 360"/>
    <path d="M620 300 Q700 310 760 370"/>
    <path d="M460 430 Q540 460 620 440"/>
    <path d="M680 460 Q740 440 780 470"/>
  </g>

  <g stroke="#ffd9a0" stroke-width="1.6" fill="none" opacity="0.95">
    <path d="M520 210 Q560 280 590 330 Q620 400 660 480 Q700 540 730 600"/>
    <path d="M560 250 Q590 310 580 370" stroke-width="1"/>
    <path d="M620 380 Q650 430 640 470" stroke-width="1"/>
  </g>
  <ellipse cx="620" cy="400" rx="190" ry="40" fill="url(#fracture)" opacity="0.4"/>

  <text x="600" y="150" text-anchor="middle" fill="#d4c9a8"
        font-family="Georgia, serif" font-size="48" font-style="italic" letter-spacing="8">
    Manira
  </text>
  <text x="600" y="195" text-anchor="middle" fill="#7a7468"
        font-family="Georgia, serif" font-size="16" letter-spacing="3">
    the world that fractured
  </text>
</svg>
