<svg xmlns="http://www.w3.org/2000/svg" viewBox="0 0 1600 900">
  <defs>
    <radialGradient id="cavern" cx="50%" cy="60%" r="90%">
      <stop offset="0%" stop-color="#1a1c22"/>
      <stop offset="60%" stop-color="#0d0f12"/>
      <stop offset="100%" stop-color="#080808"/>
    </radialGradient>
    <linearGradient id="shaft" x1="0.5" y1="0" x2="0.5" y2="1">
      <stop offset="0%" stop-color="#fff2cf" stop-opacity="0.95"/>
      <stop offset="25%" stop-color="#ffd9a0" stop-opacity="0.6"/>
      <stop offset="65%" stop-color="#a68d42" stop-opacity="0.22"/>
      <stop offset="100%" stop-color="#3a2418" stop-opacity="0"/>
    </linearGradient>
    <radialGradient id="pool" cx="50%" cy="100%" r="60%">
      <stop offset="0%" stop-color="#ffd9a0" stop-opacity="0.55"/>
      <stop offset="100%" stop-color="#14110e" stop-opacity="0"/>
    </radialGradient>
  </defs>

  <rect width="100%" height="100%" fill="url(#cavern)"/>

  <g fill="#050505">
    <path d="M0 0 L0 180 L120 240 L240 160 L360 280 L480 180 L580 290 L660 200 L720 80 L740 60 L760 80 L820 200 L900 290 L1020 180 L1140 280 L1260 160 L1380 240 L1500 180 L1600 240 L1600 0 Z"/>
  </g>

  <path d="M720 60 L900 60 L1010 900 L610 900 Z" fill="url(#shaft)"/>

  <g fill="#fff2cf" opacity="0.45">
    <circle cx="780" cy="200" r="1"/>
    <circle cx="820" cy="280" r="1.4"/>
    <circle cx="760" cy="340" r="0.9"/>
    <circle cx="840" cy="400" r="1.2"/>
    <circle cx="790" cy="460" r="0.9"/>
    <circle cx="830" cy="520" r="1.1"/>
    <circle cx="780" cy="580" r="0.9"/>
    <circle cx="820" cy="640" r="1.2"/>
  </g>

  <g fill="#c0d4e4" opacity="0.7">
    <circle cx="200" cy="330" r="1.6"/>
    <circle cx="260" cy="420" r="2"/>
    <circle cx="340" cy="360" r="1.4"/>
    <circle cx="180" cy="500" r="1.8"/>
    <circle cx="380" cy="500" r="1.4"/>
    <circle cx="140" cy="610" r="1.6"/>
    <circle cx="1340" cy="340" r="1.6"/>
    <circle cx="1420" cy="430" r="2"/>
    <circle cx="1260" cy="380" r="1.4"/>
    <circle cx="1460" cy="500" r="1.6"/>
    <circle cx="1260" cy="520" r="1.4"/>
    <circle cx="1400" cy="600" r="1.6"/>
  </g>
  <g fill="#c0d4e4" opacity="0.18">
    <circle cx="260" cy="420" r="10"/>
    <circle cx="180" cy="500" r="10"/>
    <circle cx="1420" cy="430" r="10"/>
    <circle cx="1460" cy="500" r="10"/>
  </g>

  <ellipse cx="800" cy="900" rx="620" ry="120" fill="url(#pool)"/>

  <g transform="translate(810 720)">
    <ellipse cx="0" cy="108" rx="30" ry="5" fill="#000" opacity="0.6"/>

    <path d="M-22 -10 Q-18 -70 0 -76 Q18 -70 22 -10 L30 108 L-30 108 Z"
          fill="#14110e" stroke="#6b5d3e" stroke-width="1"/>

    <ellipse cx="0" cy="-54" rx="12" ry="14" fill="#1a1714"/>
    <circle cx="-4" cy="-52" r="1.8" fill="#fff2cf"/>
    <circle cx="4"  cy="-52" r="1.8" fill="#fff2cf"/>

    <line x1="16" y1="20" x2="26" y2="80" stroke="#8a7635" stroke-width="2"/>
    <rect x="-28" y="10" width="6" height="40" fill="#6b5d3e" stroke="#8a7635" stroke-width="0.5"/>
  </g>

  <g fill="#1c1e1d">
    <path d="M0 900 L0 760 L100 740 L180 780 L280 760 L380 790 L460 760 L540 800 L640 900 Z"/>
    <path d="M1600 900 L1600 760 L1500 740 L1420 780 L1320 760 L1220 790 L1140 760 L1060 800 L960 900 Z"/>
  </g>
</svg>
