<svg xmlns="http://www.w3.org/2000/svg" viewBox="0 0 1200 700">
  <defs>
    <radialGradient id="space" cx="50%" cy="50%" r="80%">
      <stop offset="0%" stop-color="#141612"/>
      <stop offset="70%" stop-color="#0e0d0b"/>
      <stop offset="100%" stop-color="#08090a"/>
    </radialGradient>
    <radialGradient id="body" cx="42%" cy="42%" r="65%">
      <stop offset="0%" stop-color="#3a2e1f"/>
      <stop offset="55%" stop-color="#1d1812"/>
      <stop offset="100%" stop-color="#0e0d0b"/>
    </radialGradient>
  </defs>

  <rect width="100%" height="100%" fill="url(#space)"/>

  <g fill="#d4c9a8" opacity="0.4">
    <circle cx="110" cy="80"  r="1"/>
    <circle cx="260" cy="50"  r="1.2"/>
    <circle cx="420" cy="100" r="0.9"/>
    <circle cx="560" cy="60"  r="1"/>
    <circle cx="1020" cy="70" r="1.1"/>
    <circle cx="1120" cy="160" r="1"/>
    <circle cx="180" cy="580" r="1"/>
    <circle cx="340" cy="620" r="1.2"/>
    <circle cx="720" cy="600" r="0.9"/>
    <circle cx="1060" cy="540" r="1"/>
  </g>

  <circle cx="600" cy="380" r="240" fill="url(#body)" stroke="#3a2e1f" stroke-width="1"/>

  <g stroke="#6b5d3e" stroke-width="0.6" fill="none" opacity="0.45">
    <path d="M430 360 Q500 330 560 370"/>
    <path d="M620 310 Q700 320 750 370"/>
    <path d="M460 440 Q540 470 620 450"/>
    <path d="M670 460 Q720 440 770 470"/>
  </g>

  <g fill="#4a6b58" opacity="0.35">
    <ellipse cx="700" cy="480" rx="60" ry="14"/>
  </g>
  <g fill="#3a3835" opacity="0.45">
    <ellipse cx="520" cy="280" rx="50" ry="12"/>
  </g>
  <g fill="#ffd9a0" opacity="0.3">
    <ellipse cx="610" cy="380" rx="40" ry="8"/>
  </g>

  <text x="600" y="130" text-anchor="middle" fill="#d4c9a8"
        font-family="Georgia, serif" font-size="52" font-style="italic" letter-spacing="8">
    Vaelloss
  </text>
  <text x="600" y="175" text-anchor="middle" fill="#7a7468"
        font-family="Georgia, serif" font-size="15" letter-spacing="3">
    the world
  </text>
</svg>
